<svg id="Layer_1" data-name="Layer 1" xmlns="http://www.w3.org/2000/svg" viewBox="0 0 130 130"><defs><style>.cls-1{fill:#055596;}</style></defs><title>BW-3-mockups</title><path class="cls-1" d="M102.81,114.35V91.73h2v-2A10.27,10.27,0,0,0,94.63,79.39H78.28V9.48a8.18,8.18,0,1,0-16.35,0V79.39H45.59A10.27,10.27,0,0,0,35.37,89.68v2h2v22.62a14.37,14.37,0,0,0,14.31,14.4H84.41v-2.43a22.12,22.12,0,0,0,10.22,2.43H113v-4.12a10.26,10.26,0,0,1-10.21-10.28ZM66,9.48a4.09,4.09,0,1,1,8.18,0V69.11H66Zm0,63.75H74.2v6.16H66ZM45.59,83.51h49a6.14,6.14,0,0,1,5.78,4.11H39.8a6.16,6.16,0,0,1,5.79-4.11Zm6.13,41.12A10.26,10.26,0,0,1,41.5,114.35V91.73H51.72v22.62A14.35,14.35,0,0,0,56,124.63Zm42.91,0c-7.89,0-14.3-4.61-14.3-10.28H76.24a21.18,21.18,0,0,0,2.34,10.28H66A10.26,10.26,0,0,1,55.8,114.35V91.73H88.5V100h4.09V91.73h6.13v22.62a14.39,14.39,0,0,0,4.3,10.28Zm0,0"/><rect class="cls-1" x="88.5" y="104.07" width="4.09" height="4.11"/><path class="cls-1" d="M17,106.13H12.89a22.64,22.64,0,0,0,2.44,10.25A28.79,28.79,0,0,1,6.76,95.85H2.67a32.84,32.84,0,0,0,32.7,32.9v-4.12A18.47,18.47,0,0,1,17,106.13Zm0,0"/><rect class="cls-1" x="117.11" y="124.63" width="10.22" height="4.11"/><path class="cls-1" d="M21.06,102a6.13,6.13,0,1,0,6.13-6.16A6.15,6.15,0,0,0,21.06,102Zm8.18,0a2,2,0,1,1-2-2.05,2.05,2.05,0,0,1,2,2.05Zm0,0"/><path class="cls-1" d="M21.06,77.34a8.23,8.23,0,1,0-8.17-8.23,8.21,8.21,0,0,0,8.17,8.23Zm0-12.34A4.12,4.12,0,1,1,17,69.11,4.1,4.1,0,0,1,21.06,65Zm0,0"/><rect class="cls-1" x="12.89" y="97.9" width="4.09" height="4.11"/><rect class="cls-1" x="2.67" y="87.62" width="4.09" height="4.11"/><rect class="cls-1" x="2.67" y="79.39" width="4.09" height="4.11"/></svg>