<svg id="Layer_1" data-name="Layer 1" xmlns="http://www.w3.org/2000/svg" viewBox="0 0 130 130"><defs><style>.cls-1{fill:#055596;}</style></defs><title>BW-3-mockups</title><path class="cls-1" d="M112.43,1.25H17.57a2.14,2.14,0,0,0-2.15,2.13V118.12a2.14,2.14,0,0,0,2.15,2.13h4.32v6.37A2.14,2.14,0,0,0,24,128.75h8.62a2.14,2.14,0,0,0,2.16-2.13v-6.37H95.18v6.37a2.14,2.14,0,0,0,2.16,2.13H106a2.14,2.14,0,0,0,2.15-2.13v-6.37h4.32a2.14,2.14,0,0,0,2.15-2.13V3.38a2.14,2.14,0,0,0-2.15-2.13ZM30.51,124.5H26.2v-4.25h4.31Zm73.29,0H99.49v-4.25h4.31Zm6.47-8.5H19.73V5.5h90.54Zm0,0"/><path class="cls-1" d="M103.8,18.25H26.2A2.14,2.14,0,0,0,24,20.38v89.24a2.14,2.14,0,0,0,2.16,2.13h77.6a2.14,2.14,0,0,0,2.16-2.13V20.38a2.14,2.14,0,0,0-2.16-2.13ZM28.35,48h4.88a17,17,0,0,0,5.31,8.5H28.35Zm31.43,0h2.31a13,13,0,0,1-16.47,7.78A12.82,12.82,0,0,1,37.73,48h17a6.5,6.5,0,0,1-4.79,2.13v4.25A10.81,10.81,0,0,0,59.78,48Zm6.81,0h5.85l-.78,8.5H61.28A17,17,0,0,0,66.59,48ZM43.44,43.75a6.42,6.42,0,0,1,6.47-6.37V33.13A10.71,10.71,0,0,0,39.13,43.75H37a12.93,12.93,0,0,1,25.86,0ZM28.35,90.5h4.31V99H28.35Zm73.3,17H28.35v-4.25h73.3Zm-60.36-17v2.12a6.4,6.4,0,0,1-4.31,6V90.5ZM37,86.25V69.61a6.41,6.41,0,0,1,4.31,6V86.25ZM49.91,90.5v2.12a6.39,6.39,0,0,1-4.31,6V90.5ZM45.6,86.25V69.61a6.4,6.4,0,0,1,4.31,6V86.25ZM58.53,90.5v2.12a6.39,6.39,0,0,1-4.31,6V90.5Zm-4.31-4.25V69.61a6.4,6.4,0,0,1,4.31,6V86.25ZM60.63,99a10.36,10.36,0,0,0,2.21-6.38V90.5h4.32V99Zm15.15-8.5v2.12a6.39,6.39,0,0,1-4.31,6V90.5Zm-4.31-4.25V78.11a6.4,6.4,0,0,1,4.31,6v2.13ZM84.4,90.5v2.12a6.39,6.39,0,0,1-4.31,6V90.5Zm-4.31-4.25V78.11a6.4,6.4,0,0,1,4.31,6v2.13ZM93,90.5v2.12a6.39,6.39,0,0,1-4.31,6V90.5Zm-4.31-4.25V78.11a6.4,6.4,0,0,1,4.31,6v2.13ZM101.65,99H95.12a10.43,10.43,0,0,0,2.22-6.38V90.5h4.31Zm0-12.75H97.34V84.12A10.72,10.72,0,0,0,86.56,73.5a2.14,2.14,0,0,0-2.16,2.12v.06a10.75,10.75,0,0,0-6.47-2.18,2.13,2.13,0,0,0-2.15,2.12v.06a10.78,10.78,0,0,0-6.47-2.18,2.13,2.13,0,0,0-2.15,2.12V86.25H62.84V75.62A10.7,10.7,0,0,0,52.07,65a2.14,2.14,0,0,0-2.16,2.12v.06A10.75,10.75,0,0,0,43.44,65a2.13,2.13,0,0,0-2.15,2.12v.06A10.78,10.78,0,0,0,34.82,65a2.14,2.14,0,0,0-2.16,2.12V86.25H28.35V60.75h73.3ZM87.73,48l.78,8.5H76l.79-8.5ZM77.16,43.75l.59-6.37h9l.59,6.37ZM101.65,56.5H92.84L92.06,48h9.59Zm0-12.75h-10l-.79-8.69a2.14,2.14,0,0,0-2.16-1.93H75.78a2.14,2.14,0,0,0-2.16,1.93l-.79,8.69H67.16a17.25,17.25,0,0,0-34.5,0H28.35V22.5h73.3Zm0,0"/><rect class="cls-1" x="88.71" y="9.75" width="4.31" height="4.25"/><rect class="cls-1" x="54.22" y="9.75" width="21.56" height="4.25"/><rect class="cls-1" x="80.09" y="9.75" width="4.31" height="4.25"/><rect class="cls-1" x="45.6" y="9.75" width="4.31" height="4.25"/><rect class="cls-1" x="36.98" y="9.75" width="4.31" height="4.25"/></svg>