<svg id="Layer_1" data-name="Layer 1" xmlns="http://www.w3.org/2000/svg" viewBox="0 0 130 130"><defs><style>.cls-1{fill:#055596;}</style></defs><title>BW-3-mockups</title><path class="cls-1" d="M122.58,79.39c0-1.12.61-2,1.78-3.61a19.45,19.45,0,0,0,4.39-12.84c0-9.95-7.22-17.13-14.4-18.31V32.1h-4.11V23.87H97.9v4.38a51.41,51.41,0,1,0-45.24,75.82,53.85,53.85,0,0,0,28.79-8.43v22.82a10.3,10.3,0,0,0,10.28,10.29h24.68a10.3,10.3,0,0,0,10.28-10.29V93.79a21,21,0,0,0-2.81-10.71,8.06,8.06,0,0,1-1.3-3.69ZM110.24,36.21v8.23H97.9V36.21ZM102,28h4.12V32.1H102ZM97.9,32v.15h-.32ZM84.27,83.08a21.58,21.58,0,0,0-2.58,7.41,49.67,49.67,0,0,1-29,9.47A47.3,47.3,0,1,1,95.24,32.1H93.79V44.63a15.16,15.16,0,0,0-4.69,1.63A37,37,0,1,0,52.66,89.68c12.59,0,23.78-5.39,30.64-14.56l.48.66c1.17,1.61,1.78,2.49,1.78,3.61a8.15,8.15,0,0,1-1.29,3.69ZM81,71.23c-6,9.12-16.26,14.33-28.36,14.33A32.9,32.9,0,1,1,85.32,49a19.1,19.1,0,0,0-5.93,13.93A19.8,19.8,0,0,0,81,71.23Zm35.39,53.4H91.73a6.17,6.17,0,0,1-6.17-6.17V93.79A16.9,16.9,0,0,1,87.91,85a11.69,11.69,0,0,0,1.77-5.59c0-2.51-1.31-4.3-2.58-6a15.52,15.52,0,0,1-3.59-10.42c0-8.92,7.18-14.39,12.34-14.39H112.3c5.15,0,12.33,5.47,12.33,14.39A15.52,15.52,0,0,1,121,73.36c-1.27,1.73-2.58,3.52-2.58,6A11.69,11.69,0,0,0,120.23,85a16.9,16.9,0,0,1,2.35,8.81v24.67a6.17,6.17,0,0,1-6.17,6.17Zm0,0"/><rect class="cls-1" x="87.62" y="60.89" width="16.45" height="4.11"/><rect class="cls-1" x="89.68" y="114.35" width="28.79" height="4.11"/><rect class="cls-1" x="116.41" y="60.89" width="4.11" height="4.11"/><rect class="cls-1" x="108.18" y="60.89" width="4.11" height="4.11"/><path class="cls-1" d="M19.76,95.85H15.65a14.41,14.41,0,0,1-14.4,14.39v4.11a14.42,14.42,0,0,1,14.4,14.4h4.11a14.41,14.41,0,0,1,14.39-14.4v-4.11A14.41,14.41,0,0,1,19.76,95.85ZM17.7,120.27a18.59,18.59,0,0,0-8-8,18.66,18.66,0,0,0,8-8,18.74,18.74,0,0,0,8,8,18.66,18.66,0,0,0-8,8Zm0,0"/><path class="cls-1" d="M42.38,44.44H38.27A10.29,10.29,0,0,1,28,54.72v4.11A10.29,10.29,0,0,1,38.27,69.11h4.11A10.29,10.29,0,0,1,52.66,58.83V54.72A10.29,10.29,0,0,1,42.38,44.44ZM40.32,61.7a14.59,14.59,0,0,0-4.92-4.93,14.48,14.48,0,0,0,4.92-4.92,14.59,14.59,0,0,0,4.93,4.92,14.71,14.71,0,0,0-4.93,4.93Zm0,0"/></svg>