<svg id="Layer_1" data-name="Layer 1" xmlns="http://www.w3.org/2000/svg" viewBox="0 0 130 130"><defs><style>.cls-1{fill:#055596;}</style></defs><title>BW-3-mockups</title><path class="cls-1" d="M77.44,61.07,122.85,5.59a2.66,2.66,0,0,0-2.06-4.34h-18.6A2.65,2.65,0,0,0,100,2.39l-9.14,13L94.11,4.67a2.65,2.65,0,0,0-2.54-3.42H43.75A2.66,2.66,0,0,0,41.24,4.8l5.49,15.37L35.36,2.47a2.69,2.69,0,0,0-2.24-1.22H9.21A2.66,2.66,0,0,0,7.15,5.59l45.4,55.48A8,8,0,0,0,57,75.62v45.16a8,8,0,0,0,15.94,0V75.62a8,8,0,0,0,4.47-14.55ZM14.81,6.57H31.67l23.12,36a2.66,2.66,0,0,0,4.74-2.33l-12-33.63H88l-7,23.14A2.65,2.65,0,0,0,85.77,32L103.58,6.57h11.61L71.71,59.69H58.29ZM67.66,120.78a2.66,2.66,0,0,1-5.32,0V75.62h5.32v45.16ZM73,70.31H57A2.66,2.66,0,1,1,57,65H73a2.66,2.66,0,1,1,0,5.31Z"/><path class="cls-1" d="M125.81,43.84a10.77,10.77,0,0,0-2.59-10.24,10.12,10.12,0,0,0-7.33-3.13h0a10.12,10.12,0,0,0-7.32,3.13,2.65,2.65,0,1,0,3.81,3.69,4.87,4.87,0,0,1,3.51-1.51h0a4.87,4.87,0,0,1,3.51,1.51,5.46,5.46,0,0,1,.95,6.08,3.07,3.07,0,0,0,.85,3.27,8.17,8.17,0,0,1,0,11.26,7.33,7.33,0,0,1-8.55,1.47,2.66,2.66,0,0,0-3.79,1.9,8,8,0,0,1-2.1,4.1,7.49,7.49,0,0,1-10.63,0,2.66,2.66,0,0,0-3.82,3.69,12.63,12.63,0,0,0,18.27,0,13.27,13.27,0,0,0,2.61-3.9A12.62,12.62,0,0,0,125,61.59,13.54,13.54,0,0,0,125.81,43.84Z"/><circle class="cls-1" cx="25.15" cy="46.41" r="2.66"/><circle class="cls-1" cx="115.48" cy="78.28" r="2.66"/><circle class="cls-1" cx="30.46" cy="78.28" r="2.66"/><path class="cls-1" d="M31.88,61.22a2.66,2.66,0,0,0-3.66.82,6.23,6.23,0,0,1-4.12,2.85A6.53,6.53,0,0,1,19,63.67a7.94,7.94,0,0,1-2.94-8.15,2.66,2.66,0,0,0-.49-2.23,2.62,2.62,0,0,0-2-1,6.62,6.62,0,0,1-3.78-1.33A7.84,7.84,0,0,1,7.68,40.57,6.2,6.2,0,0,1,10.4,38.2a2.66,2.66,0,0,0-2.21-4.83,11.56,11.56,0,0,0-5,4.36,13.24,13.24,0,0,0,3.4,17.48,12.5,12.5,0,0,0,3.95,1.93A13.29,13.29,0,0,0,15.85,68a11.88,11.88,0,0,0,7.07,2.37,11.29,11.29,0,0,0,2.16-.21,11.49,11.49,0,0,0,7.63-5.22A2.67,2.67,0,0,0,31.88,61.22Z"/></svg>