<svg id="Layer_1" data-name="Layer 1" xmlns="http://www.w3.org/2000/svg" viewBox="0 0 130 130"><defs><style>.cls-1{fill:#055596;}</style></defs><title>BW-3-mockups</title><rect class="cls-1" x="54.21" y="56.5" width="4.32" height="4.25"/><rect class="cls-1" x="54.21" y="79.87" width="4.32" height="4.25"/><rect class="cls-1" x="58.52" y="9.75" width="12.95" height="4.25"/><path class="cls-1" d="M103.86,1.25H26.14a6.43,6.43,0,0,0-6.47,6.38V122.37a6.43,6.43,0,0,0,6.47,6.38h77.72a6.43,6.43,0,0,0,6.47-6.38V7.63a6.43,6.43,0,0,0-6.47-6.38ZM90.26,5.5l-9.4,35.18-12.81-6.3L85.65,5.5Zm-9.64,0L65,31.12,49.38,5.5Zm-36.27,0L62,34.38l-12.81,6.3L39.74,5.5ZM24,7.63A2.14,2.14,0,0,1,26.14,5.5h9.13L45.63,44.29a2.17,2.17,0,0,0,2.64,1.52,2.41,2.41,0,0,0,.42-.16l14.15-7V92.62H26.14A2.14,2.14,0,0,1,24,90.5Zm82,114.74a2.14,2.14,0,0,1-2.16,2.13H26.14A2.14,2.14,0,0,1,24,122.37v-4.64a6.69,6.69,0,0,0,2.16.39h77.72a6.69,6.69,0,0,0,2.16-.39Zm0-10.62a2.14,2.14,0,0,1-2.16,2.12H26.14A2.14,2.14,0,0,1,24,111.75v-4.64a6.69,6.69,0,0,0,2.16.39h77.72a6.69,6.69,0,0,0,2.16-.39Zm0-10.63a2.14,2.14,0,0,1-2.16,2.13H26.14A2.14,2.14,0,0,1,24,101.12V96.48a6.44,6.44,0,0,0,2.16.39h77.72a6.44,6.44,0,0,0,2.16-.39Zm0-44.62H78v4.25H106V90.5a2.14,2.14,0,0,1-2.16,2.12H67.16V38.69l14.14,7a2.17,2.17,0,0,0,2.9-.95,2.05,2.05,0,0,0,.16-.41L94.73,5.5h9.13A2.14,2.14,0,0,1,106,7.63Zm0,0"/></svg>