<svg id="Layer_1" data-name="Layer 1" xmlns="http://www.w3.org/2000/svg" viewBox="0 0 130 130"><defs><style>.cls-1{fill:#055596;}</style></defs><title>BW-3-mockups</title><path class="cls-1" d="M119.4,116h-2.14V54.38a53.33,53.33,0,0,0-106.66,0v46.74H8.47v4.25h2.32l2,21.45a2.13,2.13,0,0,0,2.13,1.93h6.4a2.13,2.13,0,0,0,2.13-1.93l2-21.45h2.32v-4.25H25.54v-9.9a53.38,53.38,0,0,0,75.27,1.48c.52-.49,1-1,1.52-1.52V116H100.2a2.13,2.13,0,0,0-2.14,2.12v8.5a2.14,2.14,0,0,0,2.14,2.13h19.2a2.13,2.13,0,0,0,2.13-2.13v-8.5A2.12,2.12,0,0,0,119.4,116ZM19.32,124.5h-2.5l-1.74-19.13h6Zm44.61-21.25a48.93,48.93,0,0,1-38.3-18.33l-.09.07V72.78a42.3,42.3,0,1,0-4.27-18.4v46.74h-6.4V54.38a49.07,49.07,0,1,1,49.06,48.87ZM25.54,54.38A38.4,38.4,0,1,1,63.93,92.62,38.32,38.32,0,0,1,25.54,54.38ZM106.6,107.5V86.25h0A53.19,53.19,0,0,0,113,75.18V107.5Zm6.4,4.25V116h-6.4v-4.25Zm4.26,12.75H102.33v-4.25h14.93Zm0,0"/><path class="cls-1" d="M63.93,22.5a31.88,31.88,0,1,0,32,31.88,31.93,31.93,0,0,0-32-31.88Zm0,59.5A27.63,27.63,0,1,1,91.67,54.38,27.68,27.68,0,0,1,63.93,82Zm0,0"/><path class="cls-1" d="M63.93,33.13A21.25,21.25,0,1,0,85.27,54.38,21.29,21.29,0,0,0,63.93,33.13Zm0,38.24A17,17,0,1,1,81,54.38a17,17,0,0,1-17.07,17Zm0,0"/></svg>