<svg id="Layer_1" data-name="Layer 1" xmlns="http://www.w3.org/2000/svg" viewBox="0 0 130 130"><defs><style>.cls-1{fill:#055596;}</style></defs><title>BW-3-mockups</title><path class="cls-1" d="M123.53,90.22l-39.3-25.1a13.54,13.54,0,0,1-4.49-4.83l-1.83,1.18,1.78-1.26a17.19,17.19,0,0,0-12.52-8.83,8.79,8.79,0,0,1,2.93-6.23l3.08-2.66A13.9,13.9,0,0,0,75.08,24a11.86,11.86,0,0,0-9.5-4.94H64.42c-6.72,0-12.16,5.9-12.17,13.16v5.22H56.5V32.21c0-4.72,3.55-8.56,7.92-8.56h1.16c4.37,0,7.92,3.84,7.92,8.57a8.85,8.85,0,0,1-3,6.68l-3.09,2.67a13.44,13.44,0,0,0-4.54,9.8,17.27,17.27,0,0,0-12.64,8.92,13.51,13.51,0,0,1-4.49,4.82L6.47,90.22a11.74,11.74,0,0,0-5.22,9.89v8.54a2.21,2.21,0,0,0,2.13,2.29,1.94,1.94,0,0,0,1.07-.31l6.75-4.28H118.8l6.75,4.28a2,2,0,0,0,2.9-.82,2.33,2.33,0,0,0,.3-1.16v-8.54a11.74,11.74,0,0,0-5.22-9.89ZM18.46,101.76,65,72.26l46.55,29.5Zm106,2.88L120.25,102v-.19H120L66.08,67.62a2,2,0,0,0-2.16,0L10.05,101.76h-.3V102L5.5,104.64v-4.53a7,7,0,0,1,3.14-5.93L47.93,69.07a17.93,17.93,0,0,0,6-6.5C57.61,56,65.53,53.84,71.63,57.8a13.43,13.43,0,0,1,4.42,4.77l0,.08a17.93,17.93,0,0,0,6,6.42l39.29,25.11a7,7,0,0,1,3.14,5.93Zm0,0"/></svg>