<svg id="Layer_1" data-name="Layer 1" xmlns="http://www.w3.org/2000/svg" viewBox="0 0 130 130"><defs><style>.cls-1{fill:#055596;}</style></defs><title>BW-3-mockups</title><path class="cls-1" d="M122.47,42.38h6.28V25.93h-8.33A24.69,24.69,0,0,0,95.85,3.31,23.56,23.56,0,0,0,76.2,13.65c-.31,0-.61-.06-.92-.06A14.4,14.4,0,0,0,62.23,22a26.71,26.71,0,0,0-52.65,4H1.25V42.38H7.47a41,41,0,0,0,11.12,26l5.28,50.17c.09,5.73,6.67,10.17,12.34,10.17H93.79c5.67,0,12.25-4.44,12.34-10.17l5.28-50.17a40.9,40.9,0,0,0,11.06-26ZM112.2,60.9l2-18.52h4.21A36.83,36.83,0,0,1,112.2,60.9ZM75.28,17.7a9.6,9.6,0,0,1,8.5,5.15l3.56-2.06a14.24,14.24,0,0,0-6.75-6.13A19.31,19.31,0,0,1,95.85,7.42,20.58,20.58,0,0,1,116.3,25.93H65.21A10.3,10.3,0,0,1,75.28,17.7ZM124.63,30v8.23h-74V36.21A6.17,6.17,0,0,1,56.77,30ZM36.21,5.37A22.65,22.65,0,0,1,58.73,25.93h-2A10.29,10.29,0,0,0,46.49,36.21V54.72a6.17,6.17,0,0,1-12.34,0V25.93H13.7A22.63,22.63,0,0,1,36.21,5.37Zm-24.62,37h4.26l2,18.45a36.72,36.72,0,0,1-6.21-18.45ZM5.37,38.27V30H30v8.23Zm96.66,80,0,.21c0,3.18-4.63,6.17-8.22,6.17H36.21c-3.59,0-8.22-3-8.22-6.17l-4.82-45.8a41,41,0,0,0,23.32,8.69v4.21h37V81.35a40.92,40.92,0,0,0,23.32-8.73ZM50.61,81.45V77.34H79.39v4.11Zm56.85-14.83A36.86,36.86,0,0,1,83.51,77.23v-4h-37v4a36.92,36.92,0,0,1-24-10.65L20,42.38H30V54.72a10.29,10.29,0,0,0,20.57,0V42.38H110Zm0,0"/><path class="cls-1" d="M118.46,97.9a10.28,10.28,0,1,0,10.29,10.28A10.29,10.29,0,0,0,118.46,97.9Zm0,16.45a6.17,6.17,0,1,1,6.17-6.17,6.17,6.17,0,0,1-6.17,6.17Zm0,0"/><rect class="cls-1" x="34.15" y="116.41" width="4.11" height="4.11"/><rect class="cls-1" x="42.38" y="116.41" width="4.11" height="4.11"/><rect class="cls-1" x="91.73" y="116.41" width="4.11" height="4.11"/><path class="cls-1" d="M77.34,97.9a6.17,6.17,0,1,0,6.17-6.17,6.18,6.18,0,0,0-6.17,6.17Zm8.22,0a2.06,2.06,0,1,1-2-2.05,2.06,2.06,0,0,1,2,2.05Zm0,0"/></svg>