<svg id="Layer_1" data-name="Layer 1" xmlns="http://www.w3.org/2000/svg" viewBox="0 0 130 130"><defs><style>.cls-1{fill:#055596;}</style></defs><title>BW-3-mockups</title><path class="cls-1" d="M69.46,68.63l16.8,17a2.08,2.08,0,0,0,1.49.62h38.16V82H88.61L72.43,65.62a8,8,0,0,0-11.38,0,8.21,8.21,0,0,0,0,11.51L65.87,82H32.44a7.38,7.38,0,0,0-7.34,7.44,7.47,7.47,0,0,0,2.2,5.31,7.49,7.49,0,0,0-.12,10.5l.12.12a7.49,7.49,0,0,0-.12,10.5l.12.13a7.49,7.49,0,0,0-.1,10.51,7.29,7.29,0,0,0,5.24,2.24h93.47V124.5H32.44a3.19,3.19,0,0,1,0-6.38H56.6v-4.25H32.44a3.19,3.19,0,0,1,0-6.37H56.6v-4.25H32.44a3.19,3.19,0,0,1,0-6.38H56.6V92.62H32.44a3.19,3.19,0,0,1,0-6.37H68.67a24,24,0,0,0,14.41,23.2l1.65-3.91a19.78,19.78,0,0,1-11.79-20.3l.09-.9a2.19,2.19,0,0,0-.6-1.72L64,74.12a3.91,3.91,0,0,1,.11-5.49,3.82,3.82,0,0,1,5.32,0Zm0,0"/><path class="cls-1" d="M60.8,1.25H4.09V5.5H60.8A10.58,10.58,0,0,1,71.3,16.13V22.5H62.9V16.13A2.11,2.11,0,0,0,60.8,14H4.09v4.25H58.7V33.13a2.11,2.11,0,0,0,2.1,2.12H73.4a2.11,2.11,0,0,0,2.1-2.12v-17A14.81,14.81,0,0,0,60.8,1.25ZM71.3,31H62.9V26.75h8.4Zm0,0"/><path class="cls-1" d="M21.51,67.75l4.2-4.25,3,3-4.2,4.25Zm0,0"/><path class="cls-1" d="M29.91,59.25,34.11,55l3,3-4.2,4.25Zm0,0"/><path class="cls-1" d="M38.31,50.75l4.2-4.25,3,3-4.2,4.25Zm0,0"/><path class="cls-1" d="M46.71,42.25,50.91,38l3,3-4.2,4.25Zm0,0"/><path class="cls-1" d="M105.52,66.51l3-3,4.2,4.25-3,3Zm0,0"/><path class="cls-1" d="M97.12,58l3-3,4.2,4.25-3,3Zm0,0"/><path class="cls-1" d="M88.72,49.5l3-3,4.2,4.25-3,3Zm0,0"/><path class="cls-1" d="M80.32,41l3-3,4.2,4.25-3,3Zm0,0"/><path class="cls-1" d="M58.52,45.36,61,40.72l3.7,2-2.44,4.65Zm0,0"/><path class="cls-1" d="M53.71,54.5l2.7-5.15,3.71,2-2.7,5.14Zm0,0"/><path class="cls-1" d="M48.89,63.65l2.58-4.9,3.71,2-2.58,4.9Zm0,0"/><path class="cls-1" d="M44.24,72.5l2.68-5.1,3.71,2L48,74.5Zm0,0"/><path class="cls-1" d="M69.54,42.71l3.71-2,2.44,4.65-3.71,2Zm0,0"/><path class="cls-1" d="M74.08,51.35l3.71-2,2.7,5.15-3.7,2Zm0,0"/><path class="cls-1" d="M79,60.75l3.71-2,2.58,4.9-3.71,2Zm0,0"/><path class="cls-1" d="M83.56,69.4l3.71-2L90,72.5l-3.71,2Zm0,0"/></svg>