<svg id="Layer_1" data-name="Layer 1" xmlns="http://www.w3.org/2000/svg" viewBox="0 0 130 130"><defs><style>.cls-1{fill:#055596;}</style></defs><title>BW-3-mockups</title><path class="cls-1" d="M104.07,1.25C94.33,1.25,88.88,4,83.62,6.61,78.55,9.14,73.77,11.54,65,11.54S51.45,9.14,46.38,6.61C41.12,4,35.67,1.25,25.93,1.25A24.71,24.71,0,0,0,1.25,25.93v37A24.71,24.71,0,0,0,25.93,87.62a4.12,4.12,0,0,1,0,8.23H17.7a16.45,16.45,0,0,0,0,32.9v-4.12a12.34,12.34,0,0,1,0-24.67h8.23a8.23,8.23,0,0,0,6.8-12.85c5.75-.91,9.76-2.9,13.65-4.85,5.07-2.53,9.85-4.92,18.62-4.92s13.55,2.39,18.62,4.92c1.92,1,3.88,1.94,6.06,2.79v19a8.23,8.23,0,1,1-16.45,0,8.23,8.23,0,0,0-16.46,0v22.62h4.12V104.07a4.11,4.11,0,0,1,8.22,0,12.34,12.34,0,0,0,24.68,0V86.37a40,40,0,0,0,10.28,1.25,24.71,24.71,0,0,0,24.68-24.68v-37A24.71,24.71,0,0,0,104.07,1.25ZM5.37,25.93A20.58,20.58,0,0,1,25.93,5.37c8.77,0,13.55,2.39,18.62,4.92,5.26,2.63,10.71,5.36,20.45,5.36s15.18-2.73,20.45-5.36c5.07-2.53,9.85-4.92,18.62-4.92a20.58,20.58,0,0,1,20.56,20.56V42.38a20.58,20.58,0,0,1-20.56,20.56c-8.77,0-13.55-2.39-18.62-4.92C80.19,55.39,74.74,52.66,65,52.66S49.81,55.39,44.55,58c-5.07,2.53-9.85,4.92-18.62,4.92A20.58,20.58,0,0,1,5.37,42.38Zm119.26,37a20.59,20.59,0,0,1-20.56,20.57c-8.77,0-13.55-2.4-18.62-4.93C80.19,76,74.74,73.23,65,73.23S49.81,76,44.55,78.58c-5.07,2.53-9.85,4.93-18.62,4.93A20.59,20.59,0,0,1,5.37,62.94V56A24.66,24.66,0,0,0,25.93,67.06c9.74,0,15.19-2.73,20.45-5.36,5.07-2.53,9.85-4.93,18.62-4.93s13.55,2.4,18.62,4.93c5.26,2.63,10.71,5.36,20.45,5.36A24.66,24.66,0,0,0,124.63,56Zm0,0"/><path class="cls-1" d="M19.76,30a8.23,8.23,0,1,0-8.22-8.22A8.23,8.23,0,0,0,19.76,30Zm0-12.34a4.12,4.12,0,1,1-4.11,4.12,4.12,4.12,0,0,1,4.11-4.12Zm0,0"/><path class="cls-1" d="M46.49,50.61A12.34,12.34,0,1,0,34.15,38.27,12.35,12.35,0,0,0,46.49,50.61Zm0-20.57a8.23,8.23,0,1,1-8.22,8.23A8.24,8.24,0,0,1,46.49,30Zm0,0"/><path class="cls-1" d="M102,30A10.28,10.28,0,1,0,91.73,19.76,10.3,10.3,0,0,0,102,30Zm0-16.45a6.17,6.17,0,1,1-6.16,6.17A6.17,6.17,0,0,1,102,13.59Zm0,0"/><path class="cls-1" d="M85.56,50.61a8.23,8.23,0,1,0-8.22-8.23,8.24,8.24,0,0,0,8.22,8.23Zm0-12.34a4.11,4.11,0,1,1-4.11,4.11,4.12,4.12,0,0,1,4.11-4.11Zm0,0"/><path class="cls-1" d="M108.18,44.44a6.17,6.17,0,1,0,6.17-6.17,6.18,6.18,0,0,0-6.17,6.17Zm6.17-2.06a2.06,2.06,0,1,1-2,2.06,2.06,2.06,0,0,1,2-2.06Zm0,0"/><path class="cls-1" d="M19.76,46.49a6.17,6.17,0,1,0,6.17-6.17,6.18,6.18,0,0,0-6.17,6.17Zm8.23,0a2.06,2.06,0,1,1-2.06-2.05A2.06,2.06,0,0,1,28,46.49Zm0,0"/><rect class="cls-1" x="116.41" y="69.11" width="4.11" height="4.11"/><rect class="cls-1" x="108.18" y="71.17" width="4.11" height="4.11"/><rect class="cls-1" x="46.49" y="65" width="4.11" height="4.11"/><rect class="cls-1" x="56.77" y="60.89" width="4.11" height="4.11"/><rect class="cls-1" x="19.76" y="75.28" width="4.11" height="4.11"/><path class="cls-1" d="M108.18,104.57,106.49,107c-1.09,1.57-6.53,9.65-6.53,13.5a8.23,8.23,0,1,0,16.45,0c0-3.85-5.44-11.93-6.53-13.5Zm0,20.06a4.11,4.11,0,0,1-4.11-4.11c0-1.36,1.92-5.09,4.11-8.59,2.2,3.5,4.12,7.23,4.12,8.59a4.12,4.12,0,0,1-4.12,4.11Zm0,0"/><path class="cls-1" d="M40.32,92.23l-1.69,2.45c-1.09,1.58-6.53,9.65-6.53,13.5a8.23,8.23,0,1,0,16.45,0c0-3.85-5.44-11.92-6.53-13.5Zm0,20.07a4.12,4.12,0,0,1-4.11-4.12c0-1.36,1.92-5.09,4.11-8.59,2.2,3.5,4.12,7.23,4.12,8.59a4.13,4.13,0,0,1-4.12,4.12Zm0,0"/><rect class="cls-1" x="81.45" y="85.56" width="4.11" height="4.11"/><rect class="cls-1" x="81.45" y="93.79" width="4.11" height="4.11"/></svg>