<svg id="Layer_1" data-name="Layer 1" xmlns="http://www.w3.org/2000/svg" viewBox="0 0 130 130"><defs><style>.cls-1{fill:#055596;}</style></defs><title>BW-3-mockups</title><path class="cls-1" d="M102.35,1.25H73.23V5.37H65V19.76h8.23v4.11H84.75C83,28.27,78.41,36.92,68.82,38.29l-1.76.25v7.71l1.8.23a18.56,18.56,0,0,0,2.15.1,35,35,0,0,0,24.84-11V43A14.41,14.41,0,0,0,85.56,56.77V67.06c0,9-5.69,12.12-12.28,15.67C66.51,86.37,58.83,90.51,58.83,102v12.34a14.42,14.42,0,0,0,14.4,14.4H112.3a14.41,14.41,0,0,0,14.39-14.4V56.77a14.39,14.39,0,0,0-12.34-14.22V38.44c1.9-10.8,12.54-14.52,13-14.67l1.41-.47V10.05ZM73.23,15.65H69.11V9.48h4.12ZM71.17,42.47V42c11.75-2.66,16.57-14,18-18.17h6.71v5.45C86.68,41.14,75.49,42.46,71.17,42.47Zm51.41,14.3v57.58a10.29,10.29,0,0,1-10.28,10.28H73.23a10.3,10.3,0,0,1-10.29-10.28V102c0-9.05,5.7-12.12,12.29-15.66,3.48-1.88,7.19-3.89,10-7H100V75.28H88a18.91,18.91,0,0,0,1.71-8.22V65H100V60.89H89.68V56.77A10.29,10.29,0,0,1,100,46.49H112.3a10.29,10.29,0,0,1,10.28,10.28Zm2-36.35C121.1,22,112.09,27,110.27,37.93l0,4.45H100V19.76H77.34V5.37h24.34L124.63,13Zm0,0"/><rect class="cls-1" x="110.24" y="116.41" width="4.11" height="4.11"/><rect class="cls-1" x="102.01" y="116.41" width="4.11" height="4.11"/><rect class="cls-1" x="93.79" y="116.41" width="4.11" height="4.11"/><rect class="cls-1" x="71.17" y="116.41" width="4.11" height="4.11"/><rect class="cls-1" x="25.93" y="11.54" width="28.79" height="4.11"/><rect class="cls-1" x="9.48" y="11.54" width="4.11" height="4.11"/><rect class="cls-1" x="17.7" y="11.54" width="4.11" height="4.11"/><rect class="cls-1" x="1.25" y="11.54" width="4.11" height="4.11"/><path class="cls-1" d="M39.72,33.55l-2.91-2.91,4.12-4.11,2.9,2.91Zm0,0"/><path class="cls-1" d="M43,1.36,49.2,3.41,47.9,7.32,41.73,5.26Zm0,0"/><path class="cls-1" d="M33.55,39.72l-2.91-2.91,4.12-4.11,2.91,2.91Zm0,0"/><path class="cls-1" d="M16.57,33.94l-1.84-3.68,4.11-2.06,1.84,3.68Zm0,0"/><path class="cls-1" d="M45.89,27.38,43,24.48l4.11-4.12L50,23.27Zm0,0"/><path class="cls-1" d="M24.79,29.83,23,26.15l4.12-2.06,1.83,3.68Zm0,0"/><path class="cls-1" d="M31.18,22,35.29,20l1.84,3.68L33,25.71Zm0,0"/></svg>