<svg id="Layer_1" data-name="Layer 1" xmlns="http://www.w3.org/2000/svg" viewBox="0 0 130 130"><defs><style>.cls-1{fill:#055596;}</style></defs><title>BW-3-mockups</title><path class="cls-1" d="M30,32.1h4.11A12.35,12.35,0,0,1,46.49,19.76V15.65A12.35,12.35,0,0,1,34.15,3.31H30A12.35,12.35,0,0,1,17.7,15.65v4.11A12.35,12.35,0,0,1,30,32.1ZM32.1,11.27a16.52,16.52,0,0,0,6.44,6.43,16.54,16.54,0,0,0-6.44,6.44,16.61,16.61,0,0,0-6.44-6.44,16.59,16.59,0,0,0,6.44-6.43Zm0,0"/><path class="cls-1" d="M128.75,71.17V9.48h-.11a9.23,9.23,0,0,0-9.15-8.23H107.16A9.22,9.22,0,0,0,98,9.48H97.9V53.81a8.11,8.11,0,0,0-4.11-1.15H76.85a16.44,16.44,0,0,1,12.83-6.17V42.38A16.46,16.46,0,0,1,73.23,25.93H69.11A16.47,16.47,0,0,1,52.66,42.38v4.11a16.42,16.42,0,0,1,12.82,6.17h-56A8.2,8.2,0,0,0,8.65,69a43.23,43.23,0,0,0,37.62,38.78c-.45,1.88-1.81,4.49-6,4.49H28c-5,0-14.4,3-14.4,14.39v2.06H128.75v-2.06c0-11.38-9.42-14.39-14.4-14.39-.17,0-4.11-.07-4.11-6.17V93.6c5.21-.72,18.51-4.36,18.51-22.43ZM102,10.51a5.15,5.15,0,0,1,5.15-5.14h12.33a5.14,5.14,0,0,1,5.14,5.14v5.14H102ZM61.62,44.44a20.7,20.7,0,0,0,9.55-9.55,20.7,20.7,0,0,0,9.55,9.55A20.64,20.64,0,0,0,71.17,54a20.64,20.64,0,0,0-9.55-9.54ZM9.48,65a4.12,4.12,0,0,1,0-8.23H67.9a16.27,16.27,0,0,1,1.21,6.17h4.12a16.27,16.27,0,0,1,1.21-6.17H93.79a4.12,4.12,0,0,1,0,8.23Zm3.3,4.11h77.7a39.07,39.07,0,0,1-77.7,0Zm101.57,47.3c.39,0,8.9.1,10.14,8.22H17.85C19,116.72,27,116.42,28,116.41H40.32c6.79,0,9.4-4.67,10.08-8.29.42,0,.82.06,1.23.06A43.23,43.23,0,0,0,94.61,69a8.2,8.2,0,0,0,7.4-8.14V19.76h22.62V71.17c0,18.2-15.78,18.5-16.45,18.51h-2.05v16.45c0,8.13,5.38,10.28,8.22,10.28Zm0,0"/><rect class="cls-1" x="19.76" y="73.23" width="4.11" height="4.11"/><rect class="cls-1" x="27.99" y="73.23" width="4.11" height="4.11"/><rect class="cls-1" x="36.21" y="73.23" width="4.11" height="4.11"/></svg>