<svg id="Layer_1" data-name="Layer 1" xmlns="http://www.w3.org/2000/svg" viewBox="0 0 130 130"><defs><style>.cls-1{fill:#055596;}</style></defs><title>BW-3-mockups</title><path class="cls-1" d="M113.75,14H79.84V7.63a6.37,6.37,0,0,0-6.36-6.38h-17a6.37,6.37,0,0,0-6.36,6.38V14H16.25a2.12,2.12,0,0,0-2.12,2.13v8.5a2.12,2.12,0,0,0,2.12,2.12h4.37l6.23,100a2.12,2.12,0,0,0,2.12,2H101a2.12,2.12,0,0,0,2.12-2l6.23-100h4.37a2.12,2.12,0,0,0,2.12-2.12v-8.5A2.12,2.12,0,0,0,113.75,14ZM54.4,7.63A2.12,2.12,0,0,1,56.52,5.5h17A2.12,2.12,0,0,1,75.6,7.63V14H54.4ZM99,124.5H31l-.53-8.5H99.57Zm.8-12.75H30.17L25.66,39.5h78.68Zm4.77-76.5H25.4l-.53-8.5h80.26Zm7-12.75H18.37V18.25h93.26Zm0,0"/><rect class="cls-1" x="62.88" y="45.88" width="4.24" height="59.5"/><rect class="cls-1" x="50.16" y="45.88" width="4.24" height="59.5"/><path class="cls-1" d="M35.33,46l4.24-.15,2.12,59.51-4.24.15Zm0,0"/><path class="cls-1" d="M88.32,105.29l2.12-59.5,4.23.15-2.12,59.5Zm0,0"/><rect class="cls-1" x="75.6" y="45.88" width="4.24" height="59.5"/></svg>