<svg id="Layer_1" data-name="Layer 1" xmlns="http://www.w3.org/2000/svg" viewBox="0 0 130 130"><defs><style>.cls-1{fill:#05af50;}</style></defs><title>BW-3-mockups</title><path class="cls-1" d="M65,126.52A61.52,61.52,0,1,1,126.52,65,61.59,61.59,0,0,1,65,126.52ZM65,9.89A55.11,55.11,0,1,0,120.11,65,55.17,55.17,0,0,0,65,9.89Z"/><path class="cls-1" d="M100.2,99H29.74a52.82,52.82,0,0,1,.32-5.36,37.56,37.56,0,0,1,4.06-12.18,36,36,0,0,1,9.09-10.86c1.33-1.08,2.75-2,4.15-3,1.63-1.16,1.62-1.12,3.09,0a22.78,22.78,0,0,0,10.92,4.78,23.61,23.61,0,0,0,15.06-2.57,23.24,23.24,0,0,0,3.81-2.66c.59-.49,1-.58,1.59-.16,1.86,1.32,3.73,2.63,5.58,4a29.32,29.32,0,0,1,6.68,7.45,36.2,36.2,0,0,1,6.09,16.39A36.75,36.75,0,0,1,100.2,99Z"/><path class="cls-1" d="M65.08,68.49C54.58,69,45,59.37,45.34,48.23c.35-10.15,9-19.18,19.67-19.12A19.65,19.65,0,0,1,84.81,49C84.79,59.59,76,68.79,65.08,68.49Z"/></svg>