<svg id="Layer_1" data-name="Layer 1" xmlns="http://www.w3.org/2000/svg" viewBox="0 0 130 130"><defs><style>.cls-1{fill:#055596;}</style></defs><title>BW-3-mockups</title><path class="cls-1" d="M128.75,7.63V3.38H116a2.13,2.13,0,0,0-2.13-2.13H69.25a2.06,2.06,0,0,0-1.38.52L53.55,14c-.43,0-.86,0-1.3,0a51,51,0,0,0-36.12,87v12.89a6.38,6.38,0,1,0,12.75,0,2.13,2.13,0,0,1,4.25,0v8.5a6.38,6.38,0,1,0,12.75,0v-6.82a52.18,52.18,0,0,0,6.37.45,50.82,50.82,0,0,0,33.68-12.75h23.69a2.13,2.13,0,0,0,2.13-2.13V96.87h17V92.62h-17v-17h17V71.37h-17V67.12A2.12,2.12,0,0,0,109.62,65h-6.37a51,51,0,0,0-13-34h23.62A2.12,2.12,0,0,0,116,28.88h12.75V24.63H116v-17ZM41.63,122.37a2.13,2.13,0,1,1-4.25,0v-8.5a6.38,6.38,0,0,0-12.75,0,2.13,2.13,0,1,1-4.25,0V94.75H31v2.12a6.38,6.38,0,0,0,6.38,6.38h4.25ZM51.81,61.19,55.62,65H37.38A6.38,6.38,0,0,0,31,71.37V82H20.38V48H73.5V64.12L61.19,51.81a6.78,6.78,0,0,0-9.38,0,6.65,6.65,0,0,0,0,9.38ZM31,86.25V90.5H20.38V86.25Zm21.25,25.5a46.85,46.85,0,0,1-6.37-.48v-8H79.05a46.64,46.64,0,0,1-26.8,8.5Zm55.25-42.5V99H37.38a2.13,2.13,0,0,1-2.13-2.13V94.75h17V90.5h-17V86.25h17V82h-17V77.75h17V73.5h-17V71.37a2.12,2.12,0,0,1,2.13-2.12H60.75a2.13,2.13,0,0,0,1.5-3.63l-7.43-7.43a2.38,2.38,0,0,1,0-3.37,2.43,2.43,0,0,1,3.36,0L72,68.63a2.1,2.1,0,0,0,1.5.62ZM99,65H77.75V45.88a2.13,2.13,0,0,0-2.13-2.13H28.54A31.85,31.85,0,0,1,48.26,33.37l-.52-4.21A36,36,0,0,0,23.09,43.75H18.25a2.12,2.12,0,0,0-2.12,2.13V94.64A46.67,46.67,0,0,1,67.79,21l-5.36,5.35a6.63,6.63,0,0,0,9.38,9.38l8.25-8.24a46.91,46.91,0,0,1,4.06,3.38V31h.18A46.77,46.77,0,0,1,99,65Zm12.75-38.25H86c-.92-.81-1.89-1.59-2.88-2.33l2.53-2.53-3-3L68.81,32.69a2.44,2.44,0,0,1-3.37,0,2.38,2.38,0,0,1,0-3.37L79.25,15.51l-3-3-5.13,5.13a50.18,50.18,0,0,0-11.61-3.11L70,5.5h41.71Zm0,0"/><path class="cls-1" d="M22.47,11.52a2.12,2.12,0,0,0-1.74-1.74A8.22,8.22,0,0,1,14,3,2.12,2.12,0,0,0,9.78,3,8.22,8.22,0,0,1,3,9.78,2.12,2.12,0,0,0,3,14a8.23,8.23,0,0,1,6.75,6.76,2.12,2.12,0,0,0,4.19,0A8.23,8.23,0,0,1,20.73,14a2.13,2.13,0,0,0,1.74-2.45ZM11.88,14.91a12.5,12.5,0,0,0-3-3,12.54,12.54,0,0,0,3-3,12.5,12.5,0,0,0,3,3,12.46,12.46,0,0,0-3,3Zm0,0"/><rect class="cls-1" x="24.63" y="52.25" width="4.25" height="4.25"/><rect class="cls-1" x="33.13" y="56.5" width="4.25" height="4.25"/><rect class="cls-1" x="41.63" y="52.25" width="4.25" height="4.25"/></svg>