<svg id="Layer_1" data-name="Layer 1" xmlns="http://www.w3.org/2000/svg" viewBox="0 0 130 130"><defs><style>.cls-1{fill:#055596;}</style></defs><title>BW-3-mockups</title><path class="cls-1" d="M112.43,1.25H17.57a2.14,2.14,0,0,0-2.15,2.13V118.12a2.14,2.14,0,0,0,2.15,2.13h4.32v6.37A2.14,2.14,0,0,0,24,128.75h8.62a2.14,2.14,0,0,0,2.16-2.13v-6.37H95.18v6.37a2.14,2.14,0,0,0,2.16,2.13H106a2.14,2.14,0,0,0,2.15-2.13v-6.37h4.32a2.14,2.14,0,0,0,2.15-2.13V3.38a2.14,2.14,0,0,0-2.15-2.13ZM30.51,124.5H26.2v-4.25h4.31Zm73.29,0H99.49v-4.25h4.31Zm6.47-8.5H19.73V31h90.54Zm0-89.25H19.73V5.5h90.54Zm0,0"/><path class="cls-1" d="M103.63,70.1c0-.35-.07-.71-.12-1.07-.1-.81-.22-1.63-.38-2.43-.09-.5-.18-1-.29-1.47-.18-.78-.38-1.56-.61-2.32-.17-.57-.36-1.12-.55-1.67s-.31-.85-.47-1.26A37.07,37.07,0,0,0,98.29,54c-.1-.18-.2-.36-.31-.54l-.06-.07A39.13,39.13,0,0,0,44.5,41,37.93,37.93,0,0,0,32,93.64,39.13,39.13,0,0,0,85.38,106,38.62,38.62,0,0,0,97.89,93.69L98,93.6c.12-.19.21-.39.34-.58a39.19,39.19,0,0,0,2.91-5.88l.46-1.27c.19-.55.38-1.1.54-1.66.24-.78.44-1.57.62-2.37.11-.47.21-1,.29-1.43.16-.81.28-1.62.38-2.43q.08-.54.12-1.08c.1-1.13.17-2.26.17-3.4s-.07-2.27-.17-3.4ZM65,107.5A34.25,34.25,0,0,1,30.46,73.55c0-18.78,15.39-34,34.43-34A34.65,34.65,0,0,1,93,53.75l-5.78,3A28.28,28.28,0,0,0,48,51.54a27.36,27.36,0,0,0-5.3,38.71,28.29,28.29,0,0,0,39.27,5.22,27.59,27.59,0,0,0,5.3-5.22l5.77,3A34.59,34.59,0,0,1,65,107.5ZM81.38,87.2l2,1A23.94,23.94,0,0,1,50,91.64a23.14,23.14,0,0,1-3.45-32.88,23.94,23.94,0,0,1,33.35-3.4,23.11,23.11,0,0,1,3.45,3.4l-2,1a6.35,6.35,0,0,0-3.46,5.64V81.57a6.34,6.34,0,0,0,3.45,5.63Zm.87-5.63V65.44a2.12,2.12,0,0,1,1.15-1.88l2.41-1.25a23,23,0,0,1,0,22.39L83.4,83.44a2.09,2.09,0,0,1-1.15-1.87Zm17.09-5c0,.25,0,.5-.08.75-.1.91-.24,1.8-.41,2.69-.08.36-.16.72-.25,1.08-.13.55-.27,1.1-.43,1.64s-.41,1.35-.65,2c-.15.43-.3.87-.47,1.28s-.44,1-.68,1.55c-.11.25-.24.5-.37.75-.21.46-.44.91-.68,1.35l-5.7-3a27.21,27.21,0,0,0,0-26.36l5.7-3c.24.44.47.9.69,1.36l.36.72c.24.52.46,1,.68,1.57s.3.8.44,1.2c.25.69.48,1.39.68,2.1.16.53.3,1.06.43,1.61.09.37.18.73.25,1.1.17.88.31,1.78.42,2.68,0,.25,0,.51.07.76.09,1,.16,2,.16,3s-.07,2-.16,3.06Zm0,0"/><path class="cls-1" d="M65,9.75a6.38,6.38,0,1,0,6.47,6.38A6.43,6.43,0,0,0,65,9.75Zm0,8.5a2.13,2.13,0,1,1,2.16-2.12A2.14,2.14,0,0,1,65,18.25Zm0,0"/><path class="cls-1" d="M103.8,9.75H86.56a2.14,2.14,0,0,0-2.16,2.13v8.5a2.14,2.14,0,0,0,2.16,2.12H103.8A2.14,2.14,0,0,0,106,20.38v-8.5a2.14,2.14,0,0,0-2.16-2.13Zm-2.15,8.5H88.71V14h12.94Zm0,0"/><rect class="cls-1" x="49.91" y="9.75" width="4.31" height="4.25"/><rect class="cls-1" x="49.91" y="18.25" width="4.31" height="4.25"/><rect class="cls-1" x="75.78" y="9.75" width="4.31" height="4.25"/><rect class="cls-1" x="75.78" y="18.25" width="4.31" height="4.25"/><path class="cls-1" d="M43.44,9.75H26.2A2.14,2.14,0,0,0,24,11.88V22.5h4.31V14H41.29v8.5H45.6V11.88a2.14,2.14,0,0,0-2.16-2.13Zm0,0"/><path class="cls-1" d="M60.15,55l1.08,4.11A15,15,0,0,1,65,58.63V54.38a19.29,19.29,0,0,0-4.85.6Zm0,0"/><path class="cls-1" d="M55.3,56.94A19.13,19.13,0,0,0,45.6,73.5h4.31a14.89,14.89,0,0,1,7.55-12.89Zm0,0"/></svg>