<svg id="Layer_1" data-name="Layer 1" xmlns="http://www.w3.org/2000/svg" viewBox="0 0 130 130"><defs><style>.cls-1{fill:#055596;}</style></defs><title>BW-3-mockups</title><path class="cls-1" d="M1.25,1.25v127.5h127.5V1.25ZM124.63,124.63H5.37V5.37H124.63Zm0,0"/><path class="cls-1" d="M118.46,69.11V11.54H48.67a17.53,17.53,0,0,1-.12-2.06H44.44a17.66,17.66,0,0,1-.13,2.06H11.54V118.46H118.46Zm-4.11-53.46V56.77H103A64.55,64.55,0,0,1,94,43l13.56-13.56-2.91-2.91L92.21,39a95,95,0,0,1-6.39-23.35ZM46.49,18.9A22.78,22.78,0,0,0,57.63,30,22.78,22.78,0,0,0,46.49,41.18,22.78,22.78,0,0,0,35.35,30,22.78,22.78,0,0,0,46.49,18.9ZM15.65,15.65H43.36A18.54,18.54,0,0,1,25.93,28V32.1a18.42,18.42,0,0,1,12,4.47C35.78,42,32.09,50.73,27,56.77H15.65Zm0,45.24H25.93V65H15.65Zm0,8.22H26.56c1,2.7,3.31,9.28,5.66,17.54L15.65,103.22Zm0,45.24V109L33.47,91.21A164.45,164.45,0,0,1,38,114.35ZM62.94,78.67a12.2,12.2,0,0,1-4.11.72v4.12a12.2,12.2,0,0,1,4.11.72v30.12H42.18a174.92,174.92,0,0,0-5.33-26.51L54.12,70.57l-2.91-2.91L35.56,83.31C33,74.68,30.64,68.26,30,66.68V59.55c5-5.87,8.64-13.91,11-19.61a18.38,18.38,0,0,1,3.41,10.67h4.11a18.51,18.51,0,0,1,14.39-18Zm0-51.16A18.56,18.56,0,0,1,49.63,15.65H62.94Zm4.12,86.84V86.67a12.33,12.33,0,0,1,4.11,9.18h4.11A12.35,12.35,0,0,1,87.62,83.51V79.39A12.34,12.34,0,0,1,75.28,67.06H71.17a12.32,12.32,0,0,1-4.11,9.17V15.65h14.6a96.4,96.4,0,0,0,7.39,26.51L74.86,56.35l2.9,2.91L90.94,46.08a67.71,67.71,0,0,0,9,13.51v7.09c-1.22,3.23-9.85,26.61-12.14,47.67Zm-.27-32.9A16.54,16.54,0,0,0,73.23,75a16.45,16.45,0,0,0,6.43,6.44,16.52,16.52,0,0,0-6.43,6.44,16.54,16.54,0,0,0-6.44-6.44Zm47.56,32.9H92c2.12-18.73,9.51-39.83,11.48-45.24h2.16c-.76,3.48-2.16,10.42-3.56,20.27l4.06.59c1.52-10.58,3-17.85,3.71-20.86h4.54Zm0-49.35H104.07V60.89h10.28Zm0,0"/><path class="cls-1" d="M71.77,47.1l6.17-6.17,2.91,2.9L74.68,50Zm0,0"/><path class="cls-1" d="M45.89,99.36,43,96.45,53.26,86.17l2.91,2.91Zm0,0"/></svg>